<svg xmlns="http://www.w3.org/2000/svg" width="28" height="28" fill="none" viewBox="0 0 28 28"><path fill="#000" d="M8.017 5.166C7.748 5.359 7 6.117 7 6.193C7 6.225 7.333 6.591 7.736 7.011C9.329 8.651 9.657 9.091 9.716 9.623C9.796 10.35 9.876 10.56 10.281 11.119C10.581 11.539 10.684 11.819 10.759 12.404C10.931 13.759 10.974 18.997 10.818 19.411C10.781 19.513 10.63 19.744 10.485 19.922C10.3303 20.1151 10.1938 20.3219 10.077 20.54C9.947 20.798 9.931 20.9 9.931 21.347C9.931 21.825 9.941 21.879 10.114 22.191C10.344 22.621 10.776 23.03 11.222 23.234C11.56 23.396 11.587 23.401 12.227 23.379C13.019 23.358 13.227 23.278 13.76 22.782C14.21 22.358 14.421 21.944 14.421 21.465C14.421 20.928 14.293 20.545 13.985 20.18C13.565 19.674 13.458 19.465 13.399 19.03C13.259 18.029 13.292 13.022 13.443 12.318L13.479 12.135L14.179 12.829C14.981 13.619 15.658 14.436 15.819 14.803C15.879 14.937 15.954 15.253 15.985 15.496C16.099 16.448 16.136 16.636 16.276 16.921C16.46 17.286 16.949 17.792 17.277 17.948C17.481 18.045 17.615 18.066 18.077 18.066C18.744 18.066 18.949 17.986 19.46 17.507C20.063 16.947 20.363 16.265 20.326 15.517C20.298 14.952 20.089 14.501 19.659 14.071C19.299 13.711 18.912 13.501 18.266 13.308C18.0355 13.2401 17.8107 13.1538 17.594 13.05C17.287 12.866 16.524 12.189 16.051 11.673C15.071 10.613 14.722 10.097 14.669 9.629C14.615 9.14 14.287 8.527 13.883 8.156C13.437 7.742 13.023 7.553 12.275 7.425C11.523 7.29 11.27 7.172 10.603 6.602C9.215 5.435 8.613 5 8.372 5C8.307 5 8.146 5.074 8.017 5.165V5.166V5.166Z"/><circle cx="14" cy="14" r="12.75" stroke="#000" stroke-width="2.5"/></svg>